<?xml version="1.0" encoding="UTF-8"?>
<svg width="32px" height="42px" viewBox="0 0 32 42" version="1.1" xmlns="http://www.w3.org/2000/svg" xmlns:xlink="http://www.w3.org/1999/xlink">
    <title>Batman</title>
    <g id="Game-UI" stroke="none" stroke-width="1" fill="none" fill-rule="evenodd">
        <g id="Tic-Tac-Toe" transform="translate(-326.000000, -49.000000)">
            <g id="Group-2" transform="translate(18.000000, 49.000000)">
                <g id="character" transform="translate(308.000000, 0.000000)">
                    <path d="M18.92674,19.15354 C18.89734,19.15354 18.85254,19.15074 18.79934,19.14374 C17.27194,18.95194 15.94054,20.21614 15.94054,21.75614 L15.94054,39.15254 C15.94054,40.60154 17.11654,41.77614 18.56554,41.77614 C19.07794,41.77614 19.58054,41.62634 20.00894,41.34354 L24.66534,38.27614 C25.08114,38.00174 25.41294,37.61254 25.61594,37.15614 L26.56374,35.03794 C26.66734,34.80414 26.73734,34.55914 26.77094,34.30714 C26.98514,32.65934 27.79854,26.24174 27.42754,26.24174 C27.00334,26.24174 19.63514,19.15354 18.92674,19.15354" id="Fill-1" fill="#FBC399"></path>
                    <path d="M12.9549,19.15354 C12.9857,19.15354 13.0291,19.15074 13.0823,19.14374 C14.6111,18.95194 15.9411,20.21614 15.9411,21.75614 L15.9411,39.15254 C15.9411,40.60154 14.7665,41.77614 13.3175,41.77614 C12.8037,41.77614 12.3011,41.62634 11.8741,41.34354 L7.2177,38.27614 C6.8005,38.00174 6.4701,37.61254 6.2671,37.15614 L5.3193,35.03794 C5.2143,34.80414 5.1457,34.55914 5.1121,34.30714 C4.8965,32.65934 4.0831,26.24174 4.4541,26.24174 C4.8783,26.24174 12.2465,19.15354 12.9549,19.15354" id="Fill-3" fill="#FBC399"></path>
                    <path d="M1.65928,0 C1.20708,0.1498 -0.00112,21.7182 -0.00112,21.7182 L4.37248,36.498 L8.74608,28.504 L14.47768,25.186 L15.68588,24.885 L15.68588,1.96 L5.27828,4.977 L1.65928,0 Z" id="Fill-5" fill="#37474F"></path>
                    <path d="M26.09222,4.97658 L15.68462,1.96098 L15.68462,24.88458 L16.89142,25.18698 L22.62162,28.50498 L26.99662,36.49758 L31.37162,21.71778 C31.37162,21.71778 30.16342,0.15078 29.71122,-0.00042 L26.09222,4.97658 Z" id="Fill-8" fill="#263238"></path>
                    <polygon id="Fill-11" fill="#FBC399" points="4.39222 19.17272 6.65462 23.84732 10.72582 25.20532 13.59162 24.30092 10.11542 20.47752"></polygon>
                    <path d="M8.66194,21.97132 C7.44674,21.69972 6.51294,21.71372 6.57874,21.81032 C6.91054,22.28912 7.46214,22.69372 8.09774,23.00592 C8.61714,23.25792 9.19254,23.44972 9.75674,23.56592 C10.66534,23.76332 11.54454,23.76752 12.08214,23.54632 C11.42274,23.00032 10.64574,22.60692 9.88834,22.32972 C9.46414,22.17852 9.04974,22.05812 8.66194,21.97132" id="Fill-13" fill="#FFFFFF"></path>
                    <path d="M8.66194,21.97132 C8.32454,22.12812 8.08654,22.47112 8.08654,22.87012 C8.08654,22.91492 8.09214,22.96112 8.09774,23.00592 C8.61714,23.25792 9.19254,23.44972 9.75674,23.56592 C9.93874,23.38952 10.04934,23.14172 10.04934,22.87012 C10.04934,22.66852 9.98914,22.48092 9.88834,22.32972 C9.46414,22.17852 9.04974,22.05812 8.66194,21.97132" id="Fill-15" fill="#2C3E50"></path>
                    <polygon id="Fill-17" fill="#FBC399" points="17.51316 24.30036 20.37896 25.20476 24.45156 23.84816 26.71396 19.17216 20.83816 20.47836"></polygon>
                    <path d="M22.44186,21.97132 C22.05966,22.06232 21.64106,22.17852 21.22106,22.32972 C20.46506,22.60692 19.68246,22.99612 19.02166,23.54632 C19.56066,23.76752 20.43846,23.76332 21.35266,23.56592 C21.91266,23.44972 22.48806,23.25792 23.00746,23.00592 C23.64306,22.69372 24.19326,22.28912 24.52646,21.81032 C24.59646,21.71372 23.66406,21.69972 22.44186,21.97132" id="Fill-19" fill="#FFFFFF"></path>
                    <path d="M22.44186,21.97132 C22.05966,22.06232 21.64106,22.17852 21.22106,22.32972 C21.12166,22.48092 21.06006,22.66852 21.06006,22.87012 C21.06006,23.14172 21.17066,23.38952 21.35266,23.56592 C21.91266,23.44972 22.48806,23.25792 23.00746,23.00592 C23.01306,22.96112 23.01726,22.91492 23.01726,22.87012 C23.01726,22.47112 22.78066,22.12812 22.44186,21.97132" id="Fill-21" fill="#2C3E50"></path>
                    <polygon id="Fill-23" fill="#C68D67" points="13.27214 30.80476 16.17994 32.16136 18.61034 30.19156 15.89014 31.14356"></polygon>
                    <polygon id="Fill-25" fill="#C68D67" points="12.1415 34.42446 10.5567 35.15946 21.3423 34.10246 20.3343 32.96706"></polygon>
                    <polygon id="Fill-27" fill="#D69D76" points="14.51618 37.13892 17.85378 36.96952 19.57578 35.48972 14.00798 36.34792"></polygon>
                </g>
            </g>
        </g>
    </g>
</svg>