<?xml version="1.0" encoding="UTF-8"?>
<svg width="41px" height="42px" viewBox="0 0 41 42" version="1.1" xmlns="http://www.w3.org/2000/svg" xmlns:xlink="http://www.w3.org/1999/xlink">
    <title>Captain</title>
    <g id="Game-UI" stroke="none" stroke-width="1" fill="none" fill-rule="evenodd">
        <g id="Tic-Tac-Toe" transform="translate(-18.000000, -49.000000)">
            <g id="Captain" transform="translate(18.000000, 49.000000)">
                <path d="M7.1739575,24.7290996 C7.1739575,24.7290996 11.129708,41.9024528 20.156092,41.9024528 C29.182476,41.9024528 32.1439673,29.452223 32.1439673,29.452223 L31.2437236,17.7231421 L7.1739575,24.7290996 Z" id="Fill-1" fill="#F0BF7C"></path>
                <path d="M30.5216838,11.3482391 C32.8585922,8.80196681 37.6283758,3.47976255 39.1863739,0.971737021 C41.2765357,-2.41703745 40.079522,6.02603489 38.6543875,8.07456255 C38.6543875,8.07456255 40.497448,10.0079923 38.5970912,13.5690562 C38.5970912,13.5690562 40.497448,19.0444264 32.3078027,21.6482477 C32.6308261,20.4036179 32.5735298,14.2008434 31.4336351,12.5733881 C31.1675532,12.1905626 30.8447072,11.7693115 30.5216838,11.3482391" id="Fill-4" fill="#E94936"></path>
                <path d="M10.132646,11.7119591 C7.94758168,9.33797617 2.75987212,3.61364426 1.12612943,0.971754894 C-0.964209747,-2.41701957 0.232626511,6.02605277 1.67691891,8.07458043 C1.67691891,8.07458043 -0.185299415,10.0080102 1.73403782,13.569074 C1.73403782,13.569074 -0.185299415,19.0442655 8.0045232,21.6482655 L7.79556023,20.65224 L8.80276881,15.7132187 L9.03053489,12.9371081 L10.132646,11.7119591 Z" id="Fill-7" fill="#E94936"></path>
                <path d="M6.50346667,14.5263345 C6.50346667,21.9542579 7.32033801,30.3397813 10.8927532,35.4896962 C9.35355828,31.3924621 9.35355828,27.5445472 9.46761871,26.6450323 C9.58185653,25.61076 10.094685,25.7835855 10.094685,25.7835855 C15.1300183,27.4298068 20.1658838,23.3709983 20.1658838,23.3709983 C20.1658838,23.3709983 25.1822366,27.4298068 30.21757,25.7835855 C30.21757,25.7835855 30.7303984,25.61076 30.8636168,26.6450323 C30.9776772,27.5445472 30.9585193,31.3924621 29.4384823,35.4896962 C32.991917,30.3397813 33.8277688,21.9542579 33.8277688,14.5263345 C33.8277688,-1.21061872 6.50346667,-1.21061872 6.50346667,14.5263345" id="Fill-9" fill="#50A1D2"></path>
                <path d="M21.7807347,21.035423 C21.7807347,21.035423 25.4670329,15.2156528 31.2436704,17.7231421 C31.2436704,17.7231421 32.2125632,21.226657 29.3053526,22.8346315 C26.4171226,24.4433209 21.7807347,21.035423 21.7807347,21.035423 M18.5315203,21.035423 C18.5315203,21.035423 14.8640251,15.2156528 9.0685846,17.7231421 C9.0685846,17.7231421 8.11867232,21.226657 11.0069023,22.8346315 C13.9141129,24.4433209 18.5315203,21.035423 18.5315203,21.035423" id="Fill-11" fill="#FEFEFE"></path>
                <path d="M11.6516384,20.4714418 C10.3014162,20.169664 9.26386067,20.1852196 9.33697178,20.2925529 C9.70563845,20.8245529 10.3185273,21.2741085 11.0247496,21.6209974 C11.6018607,21.9009974 12.241194,22.1141085 12.8680829,22.2432196 C13.8776384,22.4625529 14.8545273,22.4672196 15.4518607,22.2214418 C14.719194,21.6147751 13.8558607,21.177664 13.0143051,20.869664 C12.5429718,20.701664 12.0825273,20.5678863 11.6516384,20.4714418" id="Fill-13" fill="#FFFFFF"></path>
                <rect id="Rectangle" fill="#263238" x="12.4444444" y="20.2222222" width="3.11111111" height="3.11111111" rx="1"></rect>
                <rect id="Rectangle-Copy-14" fill="#263238" x="26.4444444" y="20.2222222" width="3.11111111" height="3.11111111" rx="1"></rect>
                <polygon id="Fill-13" fill="#FEFEFE" points="20.1657951 4.95389106 21.6099101 9.49132085 26.3412006 9.49132085 22.5028809 12.2865549 23.9847795 16.8045038 20.1657951 14.0092698 16.3272981 16.8045038 17.8095515 12.2865549 13.9710544 9.49132085 18.7023448 9.49132085"></polygon>
                <path d="M31.547731,10.2188145 C32.1556394,11.578006 32.5356043,13.2052826 32.5356043,15.1387123 C32.5356043,16.2877251 32.5166238,17.4553251 32.4786628,18.6425847 C32.3078382,22.8347209 31.794655,27.1040655 30.635425,30.7995294 C30.426462,32.1971464 30.0463197,33.8242443 29.4385887,35.4895889 C31.9468538,31.8522102 33.105729,26.5875549 33.5617934,21.1884996 C33.7519532,18.9676826 33.8278752,16.7087974 33.8278752,14.526406 C33.8278752,12.4585762 33.3530078,10.6590102 32.5166238,9.12752936 C28.9254055,2.4650783 18.6644016,1.01009106 12.1469922,4.76221021 C15.5290702,3.30722298 18.8735419,3.24985277 18.8735419,3.24985277 C18.8735419,3.24985277 28.3934191,3.38407404 31.547731,10.2188145" id="Fill-15" fill="#4284AB"></path>
                <path d="M9.50554425,8.28497362 C9.73366511,7.9595183 10.1705715,7.86390128 10.5127528,8.09373957 C10.8357762,8.32322043 10.9116982,8.78289702 10.7029127,9.10835234 C10.3417509,9.62522043 10.037708,10.2378843 9.82856764,10.9463438 C9.65774308,11.5781311 9.56284055,12.2865906 9.58182105,13.0713651 C9.60080156,13.473314 9.27777817,13.8178928 8.87865536,13.8178928 C8.49869045,13.8370162 8.15668655,13.5115609 8.15668655,13.1096119 C8.11872554,12.171314 8.23260858,11.310046 8.44139415,10.5633396 C8.6886729,9.68259064 9.06863782,8.91676085 9.50554425,8.28497362 M12.3178522,5.73870128 C12.6788366,5.54746723 13.1160979,5.68133106 13.3059029,6.02590979 C13.4960628,6.37066723 13.3628444,6.81086298 13.00186,7.00245447 C12.8689965,7.07894809 12.7167977,7.17456511 12.5649536,7.27018213 C12.4131096,7.3661566 12.2609107,7.48089702 12.1278698,7.57669277 C11.8048464,7.82565447 11.3489595,7.74898213 11.1018581,7.42352681 C10.8737372,7.11719489 10.950014,6.65787574 11.2537021,6.40891404 C11.443862,6.27487149 11.6148639,6.15977362 11.7858659,6.0641566 C11.9758483,5.93029277 12.1660082,5.81537362 12.3178522,5.73870128" id="Fill-17" fill="#FEFEFE"></path>
                <path d="M24.0859261,30.2086162 L26.0448209,31.6135609 C26.3233199,31.8133736 26.4888228,32.1366843 26.4888228,32.481263 L26.4888228,34.3530332" id="Stroke-19" stroke="#C38539" stroke-width="0.5" stroke-linecap="round"></path>
                <path d="M16.3222602,30.2086162 L14.3110361,31.6510928 C14.0651764,31.8274928 13.9193635,32.1125566 13.9193635,32.4165651 L13.9193635,34.3530332" id="Stroke-21" stroke="#C38539" stroke-width="0.5" stroke-linecap="round"></path>
                <polyline id="Stroke-23" stroke="#C38539" stroke-width="0.5" stroke-linecap="round" points="15.9835025 34.0658247 16.5334051 33.7375098 23.7828943 33.7375098"></polyline>
            </g>
        </g>
    </g>
</svg>