<?xml version="1.0" encoding="UTF-8"?>
<svg width="20px" height="20px" viewBox="0 0 20 20" version="1.1" xmlns="http://www.w3.org/2000/svg" xmlns:xlink="http://www.w3.org/1999/xlink">
    <title>crystal</title>
    <defs>
        <polygon id="path-1" points="0 0.395086376 18.5959333 0.395086376 18.5959333 18.586812 0 18.586812"></polygon>
        <polygon id="path-3" points="0.303704444 0.0650130435 9.30704444 0.0650130435 9.30704444 9.07803478 0.303704444 9.07803478"></polygon>
        <polygon id="path-5" points="0.303704444 0.404121739 9.30704444 0.404121739 9.30704444 9.41673043 0.303704444 9.41673043"></polygon>
    </defs>
    <g id="Game-UI" stroke="none" stroke-width="1" fill="none" fill-rule="evenodd">
        <g id="Tic-Tac-Toe" transform="translate(-318.000000, -109.000000)">
            <g id="Group-2" transform="translate(18.000000, 49.000000)">
                <g id="Group-5" transform="translate(205.000000, 52.000000)">
                    <g id="Group-4" transform="translate(21.000000, 8.000000)">
                        <g id="crystal" transform="translate(74.000000, 0.000000)">
                            <g id="Group-3" transform="translate(0.000000, 0.018050)">
                                <mask id="mask-2" fill="white">
                                    <use xlink:href="#path-1"></use>
                                </mask>
                                <g id="Clip-2"></g>
                                <path d="M18.4325333,9.10426304 C18.6504,9.31780652 18.6504,9.66393696 18.4325333,9.87789348 L9.6938,18.4266543 C9.47508889,18.6401978 9.12084444,18.6401978 8.90297778,18.4266543 L0.1634,9.87789348 C-0.0544666667,9.66393696 -0.0544666667,9.31780652 0.1634,9.10426304 L8.9034,0.55508913 C9.12126667,0.341958696 9.47508889,0.341545652 9.6938,0.55508913 L18.4325333,9.10426304 Z" id="Fill-1" fill="#BE75FF" mask="url(#mask-2)"></path>
                            </g>
                            <path d="M13.1743467,3.97822826 L11.37188,2.21494565 L3.08365778,8.0768587 L4.55805778,10.0718587 L13.1743467,3.97822826 Z M14.7973689,5.56596739 L4.92074667,12.5509457 L4.35370222,11.7839239 L14.10408,4.88775 L14.7973689,5.56596739 Z" id="Fill-4" fill="#FEB9EB"></path>
                            <path d="M4.93379333,14.5622609 L8.90310444,18.4448696 C9.12097111,18.658413 9.47521556,18.658413 9.69350444,18.4444565 L15.3031489,12.9567609 L16.6242822,9.50908696 L2.44437111,9.50908696 L4.93379333,14.5622609 Z" id="Fill-6" fill="#A061FF"></path>
                            <path d="M9.00346667,0.496602174 C8.968,0.518080435 8.9338,0.542863043 8.9034,0.573015217 L0.1634,9.12218913 C0.0544666667,9.22916739 0,9.36918913 0,9.50921087 L6.02595556,9.50921087 L9.00346667,0.496602174 Z" id="Fill-8" fill="#9F48FF"></path>
                            <g id="Group-12" transform="translate(9.288889, 0.431093)">
                                <mask id="mask-4" fill="white">
                                    <use xlink:href="#path-3"></use>
                                </mask>
                                <g id="Clip-11"></g>
                                <path d="M3.28121556,9.07803478 L9.30717111,9.07803478 C9.30717111,8.93801304 9.25270444,8.7979913 9.14377111,8.69101304 L0.405037778,0.14183913 C0.373793333,0.111686957 0.339171111,0.0869043478 0.303704444,0.0650130435 L3.28121556,9.07803478 Z" id="Fill-10" fill="#D783EB" mask="url(#mask-4)"></path>
                            </g>
                            <path d="M8.90306222,18.4448283 C8.93388444,18.4753935 8.96808444,18.499763 9.00397333,18.5216543 L6.02604,9.50904565 L8.44444444e-05,9.50904565 C8.44444444e-05,9.64906739 0.0541288889,9.78908913 0.163484444,9.89606739 L8.90306222,18.4448283 Z" id="Fill-13" fill="#8B38D6"></path>
                            <g id="Group-17" transform="translate(9.288889, 9.105007)">
                                <mask id="mask-6" fill="white">
                                    <use xlink:href="#path-5"></use>
                                </mask>
                                <g id="Clip-16"></g>
                                <path d="M3.28121556,0.404121739 L0.303704444,9.41673043 C0.339593333,9.39483913 0.373793333,9.37005652 0.405037778,9.3394913 L9.14377111,0.790730435 C9.25270444,0.684165217 9.30717111,0.544143478 9.30717111,0.404121739 L3.28121556,0.404121739 Z" id="Fill-15" fill="#8536CD" mask="url(#mask-6)"></path>
                            </g>
                            <path d="M6.02582889,4.79440217 C5.15858444,5.06990217 4.93142889,5.29294565 4.65022889,6.14092391 C4.36902889,5.2933587 4.14060667,5.07031522 3.27378444,4.79522826 C4.14060667,4.5201413 4.36818444,4.29751087 4.64938444,3.44994565 C4.93058444,4.29751087 5.15858444,4.51972826 6.02582889,4.79440217" id="Fill-18" fill="#FFFFFF"></path>
                            <path d="M7.62301111,6.78320652 C7.15223333,6.93272826 7.02852222,7.05375 6.8761,7.51429348 C6.72367778,7.05416304 6.59954444,6.9331413 6.12918889,6.78361957 C6.59912222,6.63451087 6.72325556,6.51348913 6.87567778,6.0533587 C7.0281,6.51348913 7.15181111,6.63451087 7.62301111,6.78320652" id="Fill-20" fill="#FFFFFF"></path>
                        </g>
                    </g>
                </g>
            </g>
        </g>
    </g>
</svg>