<?xml version="1.0" encoding="UTF-8"?>
<svg width="22px" height="26px" viewBox="0 0 22 26" version="1.1" xmlns="http://www.w3.org/2000/svg" xmlns:xlink="http://www.w3.org/1999/xlink">
    <title>Path</title>
    <g id="Game-UI" stroke="none" stroke-width="1" fill="none" fill-rule="evenodd">
        <g id="Tic-Tac-Toe" transform="translate(-177.000000, -595.000000)" fill="#7965D6" fill-rule="nonzero">
            <g id="Button/m" transform="translate(155.000000, 586.000000)">
                <path d="M33.8118905,12.6813066 L33.8118905,9.56381611 C33.8118905,9.09906442 33.2738773,8.82555236 32.9239535,9.1257592 L26.6832694,14.1589281 C26.4142628,14.3779511 26.4142628,14.8149194 26.6832694,15.0339479 L32.9239535,20.0394921 C33.2738773,20.340793 33.8118905,20.06727 33.8118905,19.6014352 L33.8118905,16.5928025 C37.6315152,17.0308594 40.5370555,20.5587274 40.1061069,24.63351 C39.7572322,27.9711777 37.093502,30.6786736 33.8118905,31.0342392 C29.7232592,31.4989909 26.1987347,28.4358747 25.8487571,24.4420516 C25.8214368,24.0862671 25.5261644,23.8127551 25.1762406,23.8127551 L22.6742641,23.8127551 C22.2707542,23.8127551 21.9744165,24.1407507 22.0017476,24.5510188 C22.4063066,30.3781932 27.1674813,35 33.0046555,35 C39.2727782,35 44.3564649,29.6120859 43.9803937,23.1301237 C43.6580162,17.6045236 39.2455548,13.0915746 33.8118905,12.6813066 Z" id="Path"></path>
            </g>
        </g>
    </g>
</svg>