<?xml version="1.0" encoding="UTF-8"?>
<svg width="22px" height="21px" viewBox="0 0 22 21" version="1.1" xmlns="http://www.w3.org/2000/svg" xmlns:xlink="http://www.w3.org/1999/xlink">
    <title>np_settings_2650511_000000</title>
    <g id="Game-UI" stroke="none" stroke-width="1" fill="none" fill-rule="evenodd">
        <g id="Tic-Tac-Toe" transform="translate(-221.000000, -756.000000)" fill="#A7ABB5" fill-rule="nonzero">
            <g id="button/100%" transform="translate(23.000000, 743.000000)">
                <g id="np_settings_2650511_000000" transform="translate(198.000000, 13.000000)">
                    <path d="M21.1980946,6.0613996 C20.8716065,5.30505488 19.9706952,4.73043071 19.1933535,4.78529053 C18.4160117,4.84013359 17.5175513,4.53563433 17.1198835,4.15664473 C16.7222156,3.77765513 16.3989953,2.88053566 16.4284475,2.09881461 C16.457087,1.31709355 15.8564753,0.441243266 15.087324,0.135113715 C14.3181727,-0.171015835 13.2797829,0.0614448094 12.7684328,0.646705669 C12.2578368,1.23115767 11.4011249,1.66087899 10.856154,1.67726569 C10.3111831,1.69363667 9.4446468,1.2851793 8.91605691,0.71547952 C8.38828397,0.145758784 7.33927373,-0.0580481847 6.58313085,0.269371504 C5.82705082,0.595973953 5.24854297,1.49720057 5.30336265,2.27481448 C5.35818652,3.05242838 5.05379381,3.95120328 4.67493684,4.34901035 C4.29607987,4.74681741 3.39927436,5.0660647 2.62191164,5.04068837 C1.84456986,5.01531413 0.964920371,5.6144953 0.658897952,6.38393681 C0.352875533,7.15256108 0.585254827,8.19211073 1.16949392,8.70363982 C1.75455834,9.21441453 2.18415022,10.0714264 2.20051024,10.6141363 C2.2168755,11.1568253 1.81101193,12.0261377 1.23906065,12.5549126 C0.667088435,13.0828703 0.461718883,14.1306133 0.793108757,14.8909604 C1.12368168,15.6513913 2.02050814,16.2260155 2.79784991,16.1711766 C3.57519169,16.1163336 4.47365206,16.4208328 4.87131991,16.7998224 C5.26898776,17.178812 5.5922081,18.0718453 5.56275587,18.8535663 C5.53330365,19.6352874 6.13472809,20.5111377 6.90553424,20.8172672 C7.67634038,21.1233968 8.71307538,20.8909361 9.22442545,20.3056753 C9.73583837,19.7212233 10.5900995,19.291502 11.1350703,19.2833086 C11.6800412,19.2751232 12.5465775,19.6794812 13.0792522,20.2492019 C13.6111308,20.8189227 14.6585072,21.0137191 15.4144825,20.6871166 C16.1704578,20.3605142 16.7490703,19.4633947 16.6942507,18.6857598 C16.6394268,17.9081459 16.9438195,17.009371 17.3226765,16.611564 C17.7015334,16.2137569 18.5958881,15.8953268 19.3773356,15.9264448 C20.1587831,15.9575628 21.0343269,15.3542724 21.3403493,14.5831964 C21.6463717,13.8121204 21.4180835,12.7750224 20.8289364,12.2593024 C20.2406041,11.7436242 19.8110122,10.8972365 19.7962861,10.3463542 C19.78156,9.79547185 20.1882353,8.93435283 20.7618414,8.40557789 C21.3452719,7.77284589 21.5146536,6.8609742 21.1979689,6.06114814 L21.1980946,6.0613996 Z M12.6096086,14.2214317 L12.6096086,14.2206132 C11.617052,14.6503554 10.4943274,14.6675384 9.48884609,14.2680885 C8.48401417,13.8694642 7.67803713,13.0877431 7.24934599,12.0940218 C6.82057107,11.1011176 6.80421105,9.97799999 7.20352328,8.97279536 C7.60200808,7.96761167 8.38427252,7.16135248 9.37766709,6.73313991 C10.3702237,6.30503212 11.4929483,6.28866637 12.4978012,6.68812049 C13.5026331,7.08840023 14.3077932,7.87091757 14.735835,8.86470181 C15.1637929,9.85597146 15.180153,10.9765326 14.7832937,11.980899 C14.3856258,12.9852655 13.6066292,13.7907074 12.6156436,14.2205545 L12.6096086,14.2214317 Z" id="Shape"></path>
                </g>
            </g>
        </g>
    </g>
</svg>