<?xml version="1.0" encoding="UTF-8"?>
<svg width="21px" height="20px" viewBox="0 0 21 20" version="1.1" xmlns="http://www.w3.org/2000/svg" xmlns:xlink="http://www.w3.org/1999/xlink">
    <title>Path</title>
    <g id="Game-UI" stroke="none" stroke-width="1" fill="none" fill-rule="evenodd">
        <g id="Tic-Tac-Toe---Winner" transform="translate(-244.000000, -682.000000)" fill="#B67C62" fill-rule="nonzero">
            <g id="button/100%-2" transform="translate(26.000000, 673.000000)">
                <g id="rate" transform="translate(60.000000, 9.000000)">
                    <path d="M173.114509,5.53663285 L177.653351,6.15697008 C178.940559,6.33258989 179.45563,7.83190744 178.525925,8.69343226 L175.246694,11.732266 C174.877208,12.0747555 174.70952,12.5666816 174.797056,13.0498396 L175.577495,17.3345371 C175.798634,18.5498916 174.455215,19.4777805 173.303451,18.9054884 L169.241799,16.8863169 C168.784778,16.6591537 168.238381,16.6591537 167.781359,16.8880645 L163.725369,18.9159816 C162.575444,19.4908907 161.228322,18.5656188 161.446701,17.3502643 L162.216078,13.0637774 C162.302691,12.5814917 162.133151,12.0886933 161.762736,11.7470762 L158.4769,8.71607096 C157.544435,7.85631318 158.056747,6.35608751 159.343035,6.1778194 L163.879989,5.54786419 C164.390461,5.47709153 164.83182,5.17215912 165.060319,4.73268461 L167.084658,0.830693198 C167.658701,-0.275441405 169.321857,-0.277186062 169.89873,0.827198516 L171.933212,4.72404543 C172.161723,5.16264761 172.604014,5.46670992 173.114462,5.53660802 L173.114509,5.53663285 Z" id="Path"></path>
                </g>
            </g>
        </g>
    </g>
</svg>